<svg xmlns="http://www.w3.org/2000/svg" xmlns:xlink="http://www.w3.org/1999/xlink" width="175" zoomAndPan="magnify" viewBox="0 0 131.25 34.499999" height="46" preserveAspectRatio="xMidYMid meet" version="1.0"><defs><g/><clipPath id="82636d50d8"><path d="M 3.96875 3.402344 L 28.359375 3.402344 L 28.359375 29.277344 L 3.96875 29.277344 Z M 3.96875 3.402344 " clip-rule="nonzero"/></clipPath><clipPath id="5818542c99"><path d="M 8 4 L 28.359375 4 L 28.359375 29.277344 L 8 29.277344 Z M 8 4 " clip-rule="nonzero"/></clipPath></defs><g fill="#008037" fill-opacity="1"><g transform="translate(31.250535, 19.499678)"><g><path d="M 1.453125 0.0078125 L 12.304688 0.0078125 L 12.304688 -2.40625 L 4.480469 -2.40625 L 4.480469 -11.484375 L 1.453125 -11.484375 Z M 1.453125 0.0078125 "/></g></g></g><g fill="#008037" fill-opacity="1"><g transform="translate(44.019287, 19.499678)"><g><path d="M 6.371094 0.28125 C 8.300781 0.28125 9.984375 -0.320312 11.269531 -1.933594 L 9.382812 -2.875 C 9.351562 -2.875 9.320312 -2.882812 9.285156 -2.882812 C 8.691406 -1.917969 7.609375 -1.550781 6.339844 -1.550781 C 4.472656 -1.550781 3.082031 -2.296875 2.960938 -3.507812 L 11.46875 -3.507812 C 11.46875 -3.597656 11.476562 -3.683594 11.476562 -3.773438 C 11.476562 -6.414062 9.398438 -8.53125 6.101562 -8.53125 C 2.480469 -8.53125 0.351562 -6.742188 0.351562 -4.085938 C 0.351562 -1.371094 2.664062 0.28125 6.371094 0.28125 Z M 3 -5.046875 C 3.164062 -6.085938 4.300781 -6.804688 6.011719 -6.804688 C 7.777344 -6.804688 8.667969 -5.996094 8.742188 -5.046875 Z M 3 -5.046875 "/></g></g></g><g fill="#008037" fill-opacity="1"><g transform="translate(55.937324, 19.499678)"><g><path d="M 4.367188 0.28125 C 6.476562 0.28125 8.5625 -0.523438 9.085938 -2.882812 C 8.980469 -2.222656 8.910156 -1.726562 8.910156 -1.363281 C 8.925781 -0.167969 9.625 0.28125 10.925781 0.28125 C 11.757812 0.28125 12.53125 -0.046875 12.722656 -0.152344 L 12.722656 -1.460938 C 12.609375 -1.40625 12.28125 -1.324219 11.984375 -1.324219 C 11.582031 -1.324219 11.421875 -1.550781 11.421875 -2.085938 L 11.421875 -4.367188 C 11.421875 -7.214844 9.832031 -8.53125 6.390625 -8.53125 C 3.570312 -8.53125 2.054688 -7.617188 1.242188 -6.238281 L 3.433594 -5.480469 C 3.828125 -6.316406 5 -6.6875 6.074219 -6.6875 C 7.898438 -6.6875 8.546875 -5.921875 8.546875 -5.046875 L 8.546875 -4.921875 C 4.253906 -5.039062 0.65625 -4.597656 0.65625 -2.261719 C 0.65625 -0.65625 1.964844 0.28125 4.367188 0.28125 Z M 5.304688 -1.285156 C 4.046875 -1.285156 3.644531 -1.796875 3.644531 -2.3125 C 3.644531 -3.445312 5.371094 -3.652344 7.859375 -3.652344 C 8.089844 -3.644531 8.324219 -3.644531 8.546875 -3.636719 C 8.546875 -2.550781 7.039062 -1.285156 5.304688 -1.285156 Z M 5.304688 -1.285156 "/></g></g></g><g fill="#008037" fill-opacity="1"><g transform="translate(69.099328, 19.499678)"><g><path d="M 1.855469 0 L 4.671875 0 L 4.671875 -6.804688 L 8.035156 -6.804688 L 8.035156 -8.234375 L 4.277344 -8.234375 C 4.207031 -8.5 4.171875 -8.789062 4.171875 -9.09375 C 4.171875 -9.847656 4.679688 -10.21875 5.378906 -10.21875 C 6.277344 -10.21875 6.507812 -9.625 6.605469 -9.230469 L 8.621094 -9.65625 C 8.582031 -10.675781 7.769531 -12.152344 5.167969 -12.152344 C 3.074219 -12.152344 1.53125 -10.933594 1.53125 -9.230469 C 1.53125 -8.894531 1.566406 -8.5 1.621094 -8.234375 L 0.160156 -8.234375 L 0.160156 -6.804688 L 1.855469 -6.804688 Z M 1.855469 0 "/></g></g></g><g fill="#008037" fill-opacity="1"><g transform="translate(77.012582, 19.499678)"><g><path d="M 3.628906 3.105469 C 5.113281 3.105469 6.15625 2.375 7.410156 0.113281 L 12.007812 -8.234375 L 8.972656 -8.234375 L 6.132812 -2.535156 L 3.121094 -8.234375 L -0.03125 -8.234375 L 4.808594 -0.207031 L 4.6875 0.0625 C 4.367188 0.699219 3.78125 1.179688 3.082031 1.179688 C 2.425781 1.179688 1.941406 0.980469 1.597656 0.8125 L 0.964844 2.101562 C 1.5 2.59375 2.550781 3.105469 3.628906 3.105469 Z M 3.628906 3.105469 "/></g></g></g><g fill="#000000" fill-opacity="1"><g transform="translate(89.037492, 19.499678)"><g><path d="M 1.453125 0.0078125 L 12.304688 0.0078125 L 12.304688 -2.40625 L 4.480469 -2.40625 L 4.480469 -11.484375 L 1.453125 -11.484375 Z M 1.453125 0.0078125 "/></g></g></g><g fill="#000000" fill-opacity="1"><g transform="translate(101.806244, 19.499678)"><g><path d="M 1.378906 -9.183594 L 4.335938 -9.183594 L 4.335938 -11.492188 L 1.378906 -11.492188 Z M 1.421875 0 L 4.300781 0 L 4.300781 -8.234375 L 1.421875 -8.234375 Z M 1.421875 0 "/></g></g></g><g fill="#000000" fill-opacity="1"><g transform="translate(107.536531, 19.499678)"><g><path d="M 1.855469 0 L 4.671875 0 L 4.671875 -6.804688 L 8.035156 -6.804688 L 8.035156 -8.234375 L 4.277344 -8.234375 C 4.207031 -8.5 4.171875 -8.789062 4.171875 -9.09375 C 4.171875 -9.847656 4.679688 -10.21875 5.378906 -10.21875 C 6.277344 -10.21875 6.507812 -9.625 6.605469 -9.230469 L 8.621094 -9.65625 C 8.582031 -10.675781 7.769531 -12.152344 5.167969 -12.152344 C 3.074219 -12.152344 1.53125 -10.933594 1.53125 -9.230469 C 1.53125 -8.894531 1.566406 -8.5 1.621094 -8.234375 L 0.160156 -8.234375 L 0.160156 -6.804688 L 1.855469 -6.804688 Z M 1.855469 0 "/></g></g></g><g fill="#000000" fill-opacity="1"><g transform="translate(115.449785, 19.499678)"><g><path d="M 6.371094 0.28125 C 8.300781 0.28125 9.984375 -0.320312 11.269531 -1.933594 L 9.382812 -2.875 C 9.351562 -2.875 9.320312 -2.882812 9.285156 -2.882812 C 8.691406 -1.917969 7.609375 -1.550781 6.339844 -1.550781 C 4.472656 -1.550781 3.082031 -2.296875 2.960938 -3.507812 L 11.46875 -3.507812 C 11.46875 -3.597656 11.476562 -3.683594 11.476562 -3.773438 C 11.476562 -6.414062 9.398438 -8.53125 6.101562 -8.53125 C 2.480469 -8.53125 0.351562 -6.742188 0.351562 -4.085938 C 0.351562 -1.371094 2.664062 0.28125 6.371094 0.28125 Z M 3 -5.046875 C 3.164062 -6.085938 4.300781 -6.804688 6.011719 -6.804688 C 7.777344 -6.804688 8.667969 -5.996094 8.742188 -5.046875 Z M 3 -5.046875 "/></g></g></g><g fill="#008037" fill-opacity="1"><g transform="translate(31.783359, 28.042973)"><g><path d="M 3 -1.796875 L 3.484375 -1.796875 L 3.484375 -0.40625 C 3.304688 -0.257812 3.097656 -0.144531 2.859375 -0.0625 C 2.628906 0.0078125 2.390625 0.046875 2.140625 0.046875 C 1.773438 0.046875 1.445312 -0.03125 1.15625 -0.1875 C 0.875 -0.351562 0.648438 -0.570312 0.484375 -0.84375 C 0.328125 -1.125 0.25 -1.4375 0.25 -1.78125 C 0.25 -2.125 0.328125 -2.429688 0.484375 -2.703125 C 0.648438 -2.984375 0.878906 -3.203125 1.171875 -3.359375 C 1.460938 -3.515625 1.785156 -3.59375 2.140625 -3.59375 C 2.429688 -3.59375 2.691406 -3.546875 2.921875 -3.453125 C 3.148438 -3.359375 3.347656 -3.222656 3.515625 -3.046875 L 3.203125 -2.734375 C 2.910156 -3.003906 2.566406 -3.140625 2.171875 -3.140625 C 1.898438 -3.140625 1.65625 -3.082031 1.4375 -2.96875 C 1.21875 -2.851562 1.046875 -2.691406 0.921875 -2.484375 C 0.804688 -2.273438 0.75 -2.039062 0.75 -1.78125 C 0.75 -1.519531 0.804688 -1.285156 0.921875 -1.078125 C 1.046875 -0.867188 1.21875 -0.703125 1.4375 -0.578125 C 1.65625 -0.460938 1.894531 -0.40625 2.15625 -0.40625 C 2.476562 -0.40625 2.757812 -0.484375 3 -0.640625 Z M 3 -1.796875 "/></g></g></g><g fill="#008037" fill-opacity="1"><g transform="translate(39.770137, 28.042973)"><g><path d="M 2.90625 0 L 2.140625 -1.09375 C 2.046875 -1.082031 1.972656 -1.078125 1.921875 -1.078125 L 1.046875 -1.078125 L 1.046875 0 L 0.53125 0 L 0.53125 -3.546875 L 1.921875 -3.546875 C 2.378906 -3.546875 2.738281 -3.4375 3 -3.21875 C 3.269531 -3 3.40625 -2.695312 3.40625 -2.3125 C 3.40625 -2.039062 3.335938 -1.804688 3.203125 -1.609375 C 3.066406 -1.421875 2.875 -1.28125 2.625 -1.1875 L 3.46875 0 Z M 1.90625 -1.515625 C 2.226562 -1.515625 2.472656 -1.582031 2.640625 -1.71875 C 2.804688 -1.851562 2.890625 -2.050781 2.890625 -2.3125 C 2.890625 -2.570312 2.804688 -2.769531 2.640625 -2.90625 C 2.472656 -3.039062 2.226562 -3.109375 1.90625 -3.109375 L 1.046875 -3.109375 L 1.046875 -1.515625 Z M 1.90625 -1.515625 "/></g></g></g><g fill="#008037" fill-opacity="1"><g transform="translate(47.528373, 28.042973)"><g><path d="M 3.109375 -0.4375 L 3.109375 0 L 0.53125 0 L 0.53125 -3.546875 L 3.046875 -3.546875 L 3.046875 -3.109375 L 1.046875 -3.109375 L 1.046875 -2.015625 L 2.828125 -2.015625 L 2.828125 -1.59375 L 1.046875 -1.59375 L 1.046875 -0.4375 Z M 3.109375 -0.4375 "/></g></g></g><g fill="#008037" fill-opacity="1"><g transform="translate(54.997126, 28.042973)"><g><path d="M 3.109375 -0.4375 L 3.109375 0 L 0.53125 0 L 0.53125 -3.546875 L 3.046875 -3.546875 L 3.046875 -3.109375 L 1.046875 -3.109375 L 1.046875 -2.015625 L 2.828125 -2.015625 L 2.828125 -1.59375 L 1.046875 -1.59375 L 1.046875 -0.4375 Z M 3.109375 -0.4375 "/></g></g></g><g fill="#008037" fill-opacity="1"><g transform="translate(62.465881, 28.042973)"><g><path d="M 3.59375 -3.546875 L 3.59375 0 L 3.171875 0 L 1.046875 -2.65625 L 1.046875 0 L 0.53125 0 L 0.53125 -3.546875 L 0.953125 -3.546875 L 3.078125 -0.90625 L 3.078125 -3.546875 Z M 3.59375 -3.546875 "/></g></g></g><g fill="#008037" fill-opacity="1"><g transform="translate(70.655807, 28.042973)"><g><path d="M 3.109375 -0.4375 L 3.109375 0 L 0.53125 0 L 0.53125 -3.546875 L 3.046875 -3.546875 L 3.046875 -3.109375 L 1.046875 -3.109375 L 1.046875 -2.015625 L 2.828125 -2.015625 L 2.828125 -1.59375 L 1.046875 -1.59375 L 1.046875 -0.4375 Z M 3.109375 -0.4375 "/></g></g></g><g fill="#008037" fill-opacity="1"><g transform="translate(78.124562, 28.042973)"><g><path d="M 2.90625 0 L 2.140625 -1.09375 C 2.046875 -1.082031 1.972656 -1.078125 1.921875 -1.078125 L 1.046875 -1.078125 L 1.046875 0 L 0.53125 0 L 0.53125 -3.546875 L 1.921875 -3.546875 C 2.378906 -3.546875 2.738281 -3.4375 3 -3.21875 C 3.269531 -3 3.40625 -2.695312 3.40625 -2.3125 C 3.40625 -2.039062 3.335938 -1.804688 3.203125 -1.609375 C 3.066406 -1.421875 2.875 -1.28125 2.625 -1.1875 L 3.46875 0 Z M 1.90625 -1.515625 C 2.226562 -1.515625 2.472656 -1.582031 2.640625 -1.71875 C 2.804688 -1.851562 2.890625 -2.050781 2.890625 -2.3125 C 2.890625 -2.570312 2.804688 -2.769531 2.640625 -2.90625 C 2.472656 -3.039062 2.226562 -3.109375 1.90625 -3.109375 L 1.046875 -3.109375 L 1.046875 -1.515625 Z M 1.90625 -1.515625 "/></g></g></g><g fill="#008037" fill-opacity="1"><g transform="translate(85.882799, 28.042973)"><g><path d="M 1.890625 -1.234375 L 1.890625 0 L 1.390625 0 L 1.390625 -1.234375 L -0.015625 -3.546875 L 0.515625 -3.546875 L 1.65625 -1.6875 L 2.796875 -3.546875 L 3.3125 -3.546875 Z M 1.890625 -1.234375 "/></g></g></g><g clip-path="url(#82636d50d8)"><path fill="#5caf38" d="M 8.304688 23.164062 L 5.601562 22.003906 L 6.042969 21.769531 L 4.503906 20.441406 C 4.503906 20.441406 4.988281 20.175781 4.875 20.117188 C 4.761719 20.0625 4.164062 19.308594 4.164062 19.308594 L 4.234375 18.261719 L 4.632812 18.429688 L 3.964844 16.191406 L 4.804688 16.570312 L 4.050781 14.195312 L 4.847656 14.699219 C 4.847656 14.699219 4.820312 12.964844 4.960938 12.8125 C 5.101562 12.65625 5.132812 12.390625 5.132812 12.390625 L 5.1875 12.742188 L 5.859375 11.09375 L 6.070312 11.792969 C 6.539062 13.320312 7.949219 9.660156 9.171875 9.039062 L 9.96875 10.199219 C 9.96875 10.199219 11.578125 9.023438 11.875 8.703125 C 12.175781 8.382812 12.488281 8.355469 12.488281 8.355469 L 12.375 8.84375 L 14.664062 7.863281 L 14.535156 8.328125 C 14.535156 8.328125 15.476562 8.082031 15.988281 7.898438 C 16.5 7.71875 16.699219 7.558594 16.699219 7.558594 L 16.636719 7.921875 C 16.636719 7.921875 17.347656 7.761719 17.582031 7.675781 C 17.816406 7.59375 18.300781 7.328125 18.300781 7.328125 L 18.292969 7.851562 C 18.292969 7.851562 19.046875 7.71875 19.375 7.515625 C 19.703125 7.3125 20.34375 6.976562 20.34375 6.976562 L 20.234375 7.566406 C 20.234375 7.566406 21.492188 7.039062 21.621094 6.949219 C 21.75 6.859375 22.140625 6.511719 22.140625 6.511719 L 22.277344 6.921875 C 22.277344 6.921875 23.265625 6.53125 23.429688 6.308594 C 23.59375 6.082031 24.085938 5.796875 24.085938 5.796875 L 24.234375 6.28125 L 25.441406 5.457031 C 25.441406 5.457031 25.484375 5.9375 25.804688 5.804688 C 26.125 5.671875 26.945312 4.8125 26.945312 4.8125 L 28.351562 3.402344 C 28.351562 3.402344 27.285156 5.75 27.355469 6.042969 C 27.425781 6.335938 27.710938 6.125 27.710938 6.125 L 27.3125 8.320312 C 27.3125 8.320312 27.425781 8.207031 27.46875 8.488281 C 27.511719 8.765625 27.328125 9.171875 27.257812 9.507812 C 27.183594 9.84375 27.171875 10.414062 27.171875 10.414062 C 27.171875 10.414062 27.371094 10.386719 27.425781 10.511719 C 27.484375 10.636719 27.15625 12.023438 27.140625 12.398438 C 27.128906 12.777344 27.183594 13.042969 27.183594 13.042969 L 27.882812 12.859375 C 27.882812 12.859375 27.894531 13.390625 27.894531 14.0625 C 27.894531 14.730469 27.96875 15.933594 27.96875 15.933594 L 28.292969 15.765625 C 28.292969 15.765625 28.136719 16.96875 27.894531 17.472656 C 27.65625 17.972656 27.710938 18.953125 27.710938 18.953125 L 28.066406 18.796875 C 28.066406 18.796875 27.910156 19.414062 27.597656 20.363281 C 27.285156 21.3125 27.199219 21.410156 27.292969 21.417969 C 27.382812 21.425781 27.609375 21.382812 27.609375 21.382812 C 27.609375 21.382812 26.613281 23.527344 26.929688 23.640625 C 27.242188 23.75 27.304688 23.605469 27.304688 23.605469 C 27.304688 23.605469 26.464844 24.210938 26.1875 24.511719 C 25.910156 24.8125 25.832031 25.058594 25.859375 25.15625 C 25.890625 25.253906 26.003906 25.371094 26.003906 25.429688 C 26.003906 25.484375 25.304688 25.953125 24.957031 26.253906 C 24.609375 26.550781 24.003906 26.8125 23.960938 26.949219 C 23.917969 27.089844 24.117188 27.300781 24.117188 27.300781 C 24.117188 27.300781 23.71875 27.71875 23.09375 27.859375 C 22.46875 28 21.8125 28.152344 21.8125 28.152344 L 22.351562 28.5 C 22.351562 28.5 20.960938 28.773438 20.496094 28.730469 C 20.035156 28.691406 19.074219 28.800781 19.074219 28.800781 C 19.074219 28.800781 18.925781 28.765625 18.960938 28.929688 C 18.996094 29.089844 19.074219 29.261719 19.074219 29.261719 C 19.074219 29.261719 17.757812 29.179688 16.910156 29.152344 C 16.066406 29.125 15.375 28.796875 15.375 28.796875 L 15.265625 29.277344 C 15.265625 29.277344 14.269531 28.746094 13.886719 28.523438 C 13.503906 28.300781 12.664062 27.824219 12.535156 27.710938 C 12.40625 27.601562 12.222656 27.460938 12.222656 27.460938 L 12.023438 27.949219 C 12.023438 27.949219 11.15625 27.054688 10.871094 26.566406 C 10.585938 26.078125 10.089844 25.210938 10.089844 25.210938 L 9.847656 25.699219 C 9.847656 25.699219 9.175781 25 9.164062 24.441406 C 9.148438 23.882812 9.21875 23.578125 8.992188 23.785156 C 8.765625 23.996094 7.457031 25.601562 6.945312 26.941406 C 6.429688 28.285156 5.519531 28.730469 5.519531 28.730469 L 5.121094 28.0625 C 5.121094 28.0625 8.117188 24.292969 8.210938 23.730469 C 8.304688 23.164062 8.304688 23.164062 8.304688 23.164062 Z M 8.304688 23.164062 " fill-opacity="1" fill-rule="evenodd"/></g><g clip-path="url(#5818542c99)"><path fill="#008037" d="M 27.355469 6.042969 C 27.355469 6.042969 27.476562 6.167969 27.585938 6.1875 C 27.695312 6.207031 27.425781 7.699219 27.425781 7.699219 L 27.3125 8.320312 C 27.3125 8.320312 27.429688 8.894531 27.398438 9 C 27.367188 9.109375 27.175781 10.242188 27.171875 10.328125 C 27.171875 10.414062 27.425781 10.386719 27.425781 10.511719 C 27.429688 10.636719 27.109375 12.460938 27.101562 12.644531 C 27.09375 12.832031 27.148438 13.042969 27.148438 13.042969 L 27.824219 12.875 L 27.894531 14.0625 C 27.894531 14.0625 27.914062 15.820312 27.941406 15.878906 C 27.96875 15.933594 27.96875 15.933594 27.96875 15.933594 L 28.265625 15.824219 C 28.265625 15.824219 27.976562 17.285156 27.921875 17.414062 C 27.863281 17.542969 27.65625 18.253906 27.65625 18.519531 C 27.65625 18.785156 27.710938 18.953125 27.710938 18.953125 L 28.046875 18.871094 C 28.046875 18.871094 27.425781 20.859375 27.347656 21.085938 C 27.269531 21.316406 27.230469 21.457031 27.230469 21.457031 L 27.550781 21.394531 C 27.550781 21.394531 26.871094 22.949219 26.875 23.171875 C 26.875 23.398438 26.746094 23.523438 26.832031 23.578125 C 26.914062 23.632812 27.191406 23.6875 27.191406 23.6875 C 27.191406 23.6875 26.171875 24.515625 26.082031 24.632812 C 26 24.753906 25.851562 25.050781 25.871094 25.179688 C 25.886719 25.3125 26.007812 25.464844 26.007812 25.464844 C 26.007812 25.464844 24.84375 26.421875 24.503906 26.59375 C 24.167969 26.769531 24.035156 26.859375 24.035156 26.859375 C 24.035156 26.859375 23.925781 27.070312 23.957031 27.132812 C 23.988281 27.199219 24.09375 27.320312 24.09375 27.320312 C 24.09375 27.320312 23.386719 27.789062 22.953125 27.886719 C 22.519531 27.984375 21.878906 28.171875 21.878906 28.171875 L 22.304688 28.53125 C 22.304688 28.53125 21.367188 28.664062 21.308594 28.671875 C 21.246094 28.679688 20.890625 28.699219 20.890625 28.699219 C 20.890625 28.699219 20.585938 28.679688 20.355469 28.683594 C 20.125 28.6875 19.027344 28.796875 19.027344 28.796875 C 19.027344 28.796875 18.953125 28.847656 18.972656 28.976562 C 18.988281 29.101562 19.03125 29.257812 19.03125 29.257812 C 19.03125 29.257812 16.863281 29.164062 16.621094 29.128906 C 16.378906 29.09375 15.375 28.792969 15.375 28.792969 L 15.28125 29.21875 C 15.28125 29.21875 13.152344 28.171875 12.941406 27.972656 C 12.730469 27.769531 12.222656 27.457031 12.222656 27.457031 L 12.003906 27.929688 L 11.40625 27.234375 L 11.023438 26.75 C 11.023438 26.75 10.335938 25.707031 10.273438 25.527344 C 10.207031 25.347656 10.089844 25.210938 10.089844 25.210938 L 9.847656 25.699219 C 9.847656 25.699219 9.246094 24.957031 9.203125 24.679688 C 9.164062 24.402344 9.097656 23.71875 9.097656 23.71875 L 8.675781 24.144531 C 8.675781 24.144531 9.765625 23.171875 10.875 21.441406 C 11.984375 19.710938 14.152344 17.605469 14.152344 17.605469 C 14.152344 17.605469 20.535156 11.953125 21.234375 10.957031 C 21.933594 9.964844 23.300781 8.914062 23.300781 8.914062 C 23.300781 8.914062 25.890625 6.730469 26.167969 6.386719 C 26.445312 6.042969 27.421875 4.796875 27.421875 4.796875 Z M 27.355469 6.042969 " fill-opacity="1" fill-rule="evenodd"/></g><path fill="#c9e265" d="M 8.550781 23.910156 C 8.550781 23.910156 9.421875 22.902344 10.019531 23.15625 C 19.371094 27.089844 16.949219 26.828125 26.863281 21.785156 C 26.863281 21.785156 24.1875 22.902344 23.476562 23.210938 C 20.964844 24.296875 19.433594 25.667969 16.761719 25.40625 C 13.59375 25.09375 12.699219 23.742188 9.734375 22.722656 C 9.734375 22.722656 11.8125 20.375 12.039062 20.179688 C 12.265625 19.984375 13.148438 20.429688 14.117188 20.738281 C 15.082031 21.046875 18.414062 20.824219 19.179688 20.824219 C 19.949219 20.824219 22.3125 19.214844 23.449219 18.574219 C 24.589844 17.929688 27.40625 16 27.40625 16 C 27.40625 16 26.4375 16.363281 25.839844 16.699219 C 25.242188 17.035156 21.898438 19.0625 21.558594 19.382812 C 21.214844 19.703125 20.148438 20.292969 19.582031 20.460938 C 19.011719 20.625 17.160156 20.625 16.835938 20.667969 C 16.507812 20.710938 14.714844 20.570312 14.585938 20.570312 C 14.457031 20.570312 14.414062 20.613281 13.730469 20.332031 C 13.050781 20.054688 12.707031 19.941406 12.523438 19.914062 C 12.339844 19.886719 12.367188 19.648438 12.367188 19.648438 C 12.367188 19.648438 13.261719 18.808594 13.476562 18.488281 C 13.691406 18.167969 14.234375 17.71875 14.234375 17.71875 C 14.234375 17.71875 15.210938 17.71875 16.761719 17.664062 C 18.316406 17.609375 19.695312 17.496094 20.71875 16.910156 C 21.742188 16.324219 23.5625 15.066406 24.105469 14.730469 C 24.644531 14.394531 26.808594 12.914062 26.808594 12.914062 C 26.808594 12.914062 25.726562 13.304688 25.242188 13.558594 C 24.757812 13.808594 23.976562 14.507812 23.777344 14.648438 C 23.578125 14.785156 21.941406 15.902344 21.664062 16.085938 C 21.386719 16.265625 20.3125 16.917969 20.226562 16.945312 C 20.140625 16.972656 19.046875 17.246094 18.207031 17.382812 C 17.367188 17.523438 14.3125 17.546875 14.3125 17.546875 C 14.3125 17.546875 15.402344 16.421875 15.972656 16.085938 C 16.542969 15.75 18.191406 14.519531 18.746094 13.554688 C 19.300781 12.59375 20.339844 11.808594 20.339844 11.808594 C 20.339844 11.808594 20.582031 12.132812 21.605469 11.851562 C 22.632812 11.570312 23.628906 10.957031 24.339844 10.371094 C 25.050781 9.785156 26.984375 8.46875 26.984375 8.46875 C 26.984375 8.46875 24.511719 9.851562 24.113281 10.117188 C 23.714844 10.382812 22.148438 11.390625 21.804688 11.515625 C 21.464844 11.640625 21.167969 11.753906 20.78125 11.601562 C 20.398438 11.445312 20.410156 11.753906 21.238281 10.957031 C 22.0625 10.160156 23.984375 8.511719 24.4375 8.148438 C 24.894531 7.785156 26.886719 5.800781 26.886719 5.800781 L 27.484375 4.683594 C 27.484375 4.683594 26.601562 5.914062 25.660156 6.613281 C 24.722656 7.308594 23.8125 8.289062 23.355469 8.609375 C 22.902344 8.929688 21.949219 9.617188 21.691406 9.964844 C 21.4375 10.316406 20.796875 11.042969 20.683594 11.109375 C 20.566406 11.179688 20.15625 11.433594 20.15625 11.433594 C 20.15625 11.433594 20.097656 11.027344 20.441406 10.035156 C 20.78125 9.042969 21.804688 7.144531 21.804688 7.144531 C 21.804688 7.144531 21.121094 7.925781 20.796875 8.554688 C 20.46875 9.183594 19.957031 10.160156 19.941406 10.550781 C 19.925781 10.941406 19.671875 11.683594 19.671875 11.683594 C 19.671875 11.683594 19.328125 12.171875 19.015625 12.5625 C 18.703125 12.953125 17.976562 13.976562 17.550781 14.351562 C 17.125 14.730469 15.945312 15.761719 15.945312 15.761719 C 15.945312 15.761719 16.015625 16 16.171875 13.332031 C 16.328125 10.664062 18.292969 7.851562 18.292969 7.851562 C 18.292969 7.851562 16.953125 9.671875 16.640625 10.257812 C 16.328125 10.84375 15.871094 12.019531 15.816406 12.800781 C 15.757812 13.585938 15.585938 15.960938 15.585938 15.960938 C 15.585938 15.960938 14.546875 16.960938 14.089844 17.4375 C 13.632812 17.910156 13.210938 18.402344 13.011719 18.601562 C 12.8125 18.796875 12.414062 19.214844 12.414062 19.214844 C 12.414062 19.214844 11.84375 18.824219 11.84375 17.761719 C 11.84375 16.699219 12.726562 14.15625 12.871094 12.84375 C 13.011719 11.53125 14.605469 8.761719 14.605469 8.761719 C 14.605469 8.761719 12.527344 11.921875 12.5 12.648438 C 12.472656 13.375 12.074219 15.050781 11.84375 15.972656 C 11.617188 16.894531 11.390625 17.875 11.445312 18.320312 C 11.503906 18.765625 12.101562 19.410156 12.101562 19.410156 C 12.101562 19.410156 12.007812 19.722656 11.824219 19.988281 C 11.640625 20.253906 10.472656 21.332031 10.472656 21.332031 L 9.171875 22.589844 C 9.171875 22.589844 9.011719 23.402344 8.742188 22.785156 C 7.347656 19.566406 5.910156 18.546875 8.132812 14.21875 C 8.859375 12.796875 9.183594 10.417969 9.183594 10.417969 C 9.183594 10.417969 7.988281 12.652344 7.988281 13.324219 C 7.988281 13.996094 6.707031 16.316406 6.738281 16.859375 C 6.765625 17.40625 6.722656 19.09375 6.738281 19.488281 C 6.804688 21.363281 8.488281 20.765625 8.429688 23.316406 C 8.417969 23.898438 7.636719 25.113281 7.636719 25.113281 C 7.636719 25.113281 8.136719 24.703125 8.34375 24.308594 C 8.550781 23.910156 8.550781 23.910156 8.550781 23.910156 Z M 8.550781 23.910156 " fill-opacity="1" fill-rule="evenodd"/></svg>